<svg xmlns="http://www.w3.org/2000/svg" width="48" height="48" viewBox="0 0 48 48">
  <metadata><?xpacket begin="﻿" id="W5M0MpCehiHzreSzNTczkc9d"?>
<x:xmpmeta xmlns:x="adobe:ns:meta/" x:xmptk="Adobe XMP Core 5.6-c142 79.160924, 2017/07/13-01:06:39        ">
   <rdf:RDF xmlns:rdf="http://www.w3.org/1999/02/22-rdf-syntax-ns#">
      <rdf:Description rdf:about=""/>
   </rdf:RDF>
</x:xmpmeta>
                                                                                                    
                                                                                                    
                                                                                                    
                                                                                                    
                                                                                                    
                                                                                                    
                                                                                                    
                                                                                                    
                                                                                                    
                                                                                                    
                                                                                                    
                                                                                                    
                                                                                                    
                                                                                                    
                                                                                                    
                                                                                                    
                                                                                                    
                                                                                                    
                                                                                                    
                                                                                                    
                           
<?xpacket end="w"?></metadata>
<defs>
    <style>
      .cls-1 {
        fill: #00bdca;
        fill-rule: evenodd;
      }
    </style>
  </defs>
  <path class="cls-1" d="M1043.24,2884h-40.49a3.762,3.762,0,0,1-3.752-3.76v-32.99a3.753,3.753,0,0,1,3.752-3.75h40.49a3.76,3.76,0,0,1,3.76,3.75v32.99A3.768,3.768,0,0,1,1043.24,2884Zm-40.49-37.5a0.755,0.755,0,0,0-.75.75v32.99a0.758,0.758,0,0,0,.75.76h40.49a0.76,0.76,0,0,0,.76-0.76v-32.99a0.758,0.758,0,0,0-.76-0.75h-40.49Zm42.75,24h-45a1.5,1.5,0,1,1,0-3h45A1.5,1.5,0,0,1,1045.5,2870.5ZM1032,2845h-3v-5.14a0.789,0.789,0,0,0-.57-0.86h-10.87a0.793,0.793,0,0,0-.56.86V2845h-3v-5.14a3.724,3.724,0,0,1,3.56-3.86h10.87a3.726,3.726,0,0,1,3.57,3.86V2845Zm-9,18a1.6,1.6,0,0,1-1.07-.44,1.551,1.551,0,0,1-.43-1.06,1.5,1.5,0,1,1,3,0A1.5,1.5,0,0,1,1023,2863Z" transform="translate(-999 -2836)"/>
</svg>
