<svg xmlns="http://www.w3.org/2000/svg" width="47.657" height="47.78" viewBox="0 0 47.657 47.78">
  <metadata><?xpacket begin="﻿" id="W5M0MpCehiHzreSzNTczkc9d"?>
<x:xmpmeta xmlns:x="adobe:ns:meta/" x:xmptk="Adobe XMP Core 5.6-c142 79.160924, 2017/07/13-01:06:39        ">
   <rdf:RDF xmlns:rdf="http://www.w3.org/1999/02/22-rdf-syntax-ns#">
      <rdf:Description rdf:about=""/>
   </rdf:RDF>
</x:xmpmeta>
                                                                                                    
                                                                                                    
                                                                                                    
                                                                                                    
                                                                                                    
                                                                                                    
                                                                                                    
                                                                                                    
                                                                                                    
                                                                                                    
                                                                                                    
                                                                                                    
                                                                                                    
                                                                                                    
                                                                                                    
                                                                                                    
                                                                                                    
                                                                                                    
                                                                                                    
                                                                                                    
                           
<?xpacket end="w"?></metadata>
<defs>
    <style>
      .cls-1 {
        fill: #00bdca;
        fill-rule: evenodd;
      }
    </style>
  </defs>
  <path class="cls-1" d="M498.96,3243.95a22.405,22.405,0,1,1,22.333-22.41A22.4,22.4,0,0,1,498.96,3243.95Zm0-41.83a19.42,19.42,0,1,0,19.356,19.42A19.415,19.415,0,0,0,498.96,3202.12Zm-22.334,41.83a1.5,1.5,0,0,1-1.052-2.55l6.091-6.11a1.473,1.473,0,0,1,2.1,0,1.493,1.493,0,0,1,0,2.11l-6.091,6.11A1.489,1.489,0,0,1,476.626,3243.95Zm44.667,0a1.488,1.488,0,0,1-1.052-.44l-6.092-6.11a1.493,1.493,0,0,1,0-2.11,1.474,1.474,0,0,1,2.106,0l6.091,6.11A1.5,1.5,0,0,1,521.293,3243.95Zm-44.667-37.97a1.5,1.5,0,0,1-1.17-2.42,29.978,29.978,0,0,1,8.152-7.2,1.492,1.492,0,0,1,1.532,2.56,26.975,26.975,0,0,0-7.343,6.48A1.478,1.478,0,0,1,476.626,3205.98Zm44.669,0a1.477,1.477,0,0,1-1.172-.58,26.954,26.954,0,0,0-7.345-6.48,1.492,1.492,0,0,1,1.532-2.56,29.982,29.982,0,0,1,8.153,7.2A1.495,1.495,0,0,1,521.295,3205.98Zm-22.335,17.06a1.493,1.493,0,0,1-1.489-1.5V3208.1a1.489,1.489,0,1,1,2.978,0v13.44A1.494,1.494,0,0,1,498.96,3223.04Zm-8.932,5.97a1.485,1.485,0,0,1-1.24-.66,1.508,1.508,0,0,1,.412-2.08l8.933-5.97a1.49,1.49,0,0,1,2.066.41,1.506,1.506,0,0,1-.412,2.08l-8.934,5.97A1.482,1.482,0,0,1,490.028,3229.01Z" transform="translate(-475.156 -3196.16)"/>
</svg>
