<svg xmlns="http://www.w3.org/2000/svg" width="48" height="48" viewBox="0 0 48 48">
  <metadata><?xpacket begin="﻿" id="W5M0MpCehiHzreSzNTczkc9d"?>
<x:xmpmeta xmlns:x="adobe:ns:meta/" x:xmptk="Adobe XMP Core 5.6-c142 79.160924, 2017/07/13-01:06:39        ">
   <rdf:RDF xmlns:rdf="http://www.w3.org/1999/02/22-rdf-syntax-ns#">
      <rdf:Description rdf:about=""/>
   </rdf:RDF>
</x:xmpmeta>
                                                                                                    
                                                                                                    
                                                                                                    
                                                                                                    
                                                                                                    
                                                                                                    
                                                                                                    
                                                                                                    
                                                                                                    
                                                                                                    
                                                                                                    
                                                                                                    
                                                                                                    
                                                                                                    
                                                                                                    
                                                                                                    
                                                                                                    
                                                                                                    
                                                                                                    
                                                                                                    
                           
<?xpacket end="w"?></metadata>
<defs>
    <style>
      .cls-1 {
        fill: #00bdca;
        fill-rule: evenodd;
      }
    </style>
  </defs>
  <path class="cls-1" d="M1036.5,3420.5h-27.01a6,6,0,0,1-5.99-6v-27.01a6,6,0,0,1,5.99-5.99h27.01a6,6,0,0,1,6,5.99v27.01A6,6,0,0,1,1036.5,3420.5Zm-27.01-36a2.992,2.992,0,0,0-2.99,2.99v27.01a3,3,0,0,0,2.99,3h27.01a3.009,3.009,0,0,0,3-3v-27.01a3,3,0,0,0-3-2.99h-27.01Zm18.76,25.5h-10.5a3.751,3.751,0,0,1-3.75-3.75v-10.5a3.751,3.751,0,0,1,3.75-3.75h10.5a3.751,3.751,0,0,1,3.75,3.75v10.5A3.751,3.751,0,0,1,1028.25,3410Zm-10.5-15a0.755,0.755,0,0,0-.75.75v10.5a0.762,0.762,0,0,0,.75.75h10.5a0.762,0.762,0,0,0,.75-0.75v-10.5a0.755,0.755,0,0,0-.75-0.75h-10.5Zm-5.25-10.5a1.5,1.5,0,0,1-1.5-1.5v-4.5a1.5,1.5,0,0,1,1.5-1.5h0a1.5,1.5,0,0,1,1.5,1.5v4.5a1.5,1.5,0,0,1-1.5,1.5h0Zm21,0a1.5,1.5,0,0,1-1.5-1.5v-4.5a1.5,1.5,0,0,1,1.5-1.5h0a1.5,1.5,0,0,1,1.5,1.5v4.5a1.5,1.5,0,0,1-1.5,1.5h0Zm-10.5,0a1.5,1.5,0,0,1-1.5-1.5v-4.5a1.5,1.5,0,0,1,1.5-1.5h0a1.5,1.5,0,0,1,1.5,1.5v4.5a1.5,1.5,0,0,1-1.5,1.5h0Zm-10.5,40.5a1.5,1.5,0,0,1-1.5-1.5V3419a1.5,1.5,0,0,1,1.5-1.5h0a1.5,1.5,0,0,1,1.5,1.5v4.5a1.5,1.5,0,0,1-1.5,1.5h0Zm21,0a1.5,1.5,0,0,1-1.5-1.5V3419a1.5,1.5,0,0,1,1.5-1.5h0a1.5,1.5,0,0,1,1.5,1.5v4.5a1.5,1.5,0,0,1-1.5,1.5h0Zm-10.5,0a1.5,1.5,0,0,1-1.5-1.5V3419a1.5,1.5,0,0,1,1.5-1.5h0a1.5,1.5,0,0,1,1.5,1.5v4.5a1.5,1.5,0,0,1-1.5,1.5h0Zm-22.5-12a1.5,1.5,0,1,1,0-3h4.44a1.5,1.5,0,1,1,0,3h-4.44Zm0-21a1.5,1.5,0,1,1,0-3h4.44a1.5,1.5,0,1,1,0,3h-4.44Zm0,10.5a1.5,1.5,0,1,1,0-3l4.44-.01h0a1.507,1.507,0,0,1,1.5,1.51,1.49,1.49,0,0,1-1.5,1.49l-4.44.01h0Zm45,10.5H1041a1.5,1.5,0,0,1,0-3h4.5A1.5,1.5,0,0,1,1045.5,3413Zm-4.5-21a1.5,1.5,0,0,1,0-3h4.5a1.5,1.5,0,0,1,0,3H1041Zm0,10.5a1.5,1.5,0,0,1,0-3h4.5a1.5,1.5,0,0,1,0,3H1041Z" transform="translate(-999 -3377)"/>
</svg>
