<svg xmlns="http://www.w3.org/2000/svg" width="48" height="48" viewBox="0 0 48 48">
  <metadata><?xpacket begin="﻿" id="W5M0MpCehiHzreSzNTczkc9d"?>
<x:xmpmeta xmlns:x="adobe:ns:meta/" x:xmptk="Adobe XMP Core 5.6-c142 79.160924, 2017/07/13-01:06:39        ">
   <rdf:RDF xmlns:rdf="http://www.w3.org/1999/02/22-rdf-syntax-ns#">
      <rdf:Description rdf:about=""/>
   </rdf:RDF>
</x:xmpmeta>
                                                                                                    
                                                                                                    
                                                                                                    
                                                                                                    
                                                                                                    
                                                                                                    
                                                                                                    
                                                                                                    
                                                                                                    
                                                                                                    
                                                                                                    
                                                                                                    
                                                                                                    
                                                                                                    
                                                                                                    
                                                                                                    
                                                                                                    
                                                                                                    
                                                                                                    
                                                                                                    
                           
<?xpacket end="w"?></metadata>
<defs>
    <style>
      .cls-1 {
        fill: #00bdca;
        fill-rule: evenodd;
      }
    </style>
  </defs>
  <path class="cls-1" d="M1043.25,3604h-40.5a3.76,3.76,0,0,1-3.752-3.75v-40.5a3.753,3.753,0,0,1,3.752-3.75h40.5a3.751,3.751,0,0,1,3.75,3.75v40.5A3.758,3.758,0,0,1,1043.25,3604Zm-40.5-45a0.755,0.755,0,0,0-.75.75v40.5a0.755,0.755,0,0,0,.75.75h40.5a0.755,0.755,0,0,0,.75-0.75v-40.5a0.762,0.762,0,0,0-.75-0.75h-40.5Zm23.25,27c-0.05,0-.1-0.01-0.15-0.01a1.5,1.5,0,0,1-1.32-1.18l-3.38-15.79-4.24,12.07a1.475,1.475,0,0,1-1.35,1,1.5,1.5,0,0,1-1.43-.87l-3.41-7.51-0.81,1.15a1.5,1.5,0,0,1-1.23.64h-8.18a1.5,1.5,0,1,1,0-3h7.4l1.87-2.67a1.495,1.495,0,0,1,2.59.25l2.96,6.5,4.76-13.58a1.5,1.5,0,0,1,2.88.18l3.52,16.43,4.14-9.51a1.564,1.564,0,0,1,1.41-.9,1.486,1.486,0,0,1,1.37.95l1.8,4.64,0.79-1.49a1.505,1.505,0,0,1,1.33-.8h8.18a1.5,1.5,0,0,1,0,3h-7.28l-1.9,3.6a1.505,1.505,0,0,1-1.41.79,1.487,1.487,0,0,1-1.31-.95l-1.68-4.31-4.55,10.46A1.49,1.49,0,0,1,1026,3586Zm19.5,6h-45a1.5,1.5,0,1,1,0-3h45A1.5,1.5,0,0,1,1045.5,3592Zm-6,3a1.5,1.5,0,1,1-1.5,1.5A1.5,1.5,0,0,1,1039.5,3595Zm-4.5,0a1.5,1.5,0,1,1-1.5,1.5A1.5,1.5,0,0,1,1035,3595Z" transform="translate(-999 -3556)"/>
</svg>
