<?xml version="1.0" encoding="utf-8"?>
<!-- Generator: Adobe Illustrator 22.0.1, SVG Export Plug-In . SVG Version: 6.00 Build 0)  -->
<svg version="1.1" id="instagram" xmlns="http://www.w3.org/2000/svg" xmlns:xlink="http://www.w3.org/1999/xlink" x="0px" y="0px"
	 viewBox="0 0 39 39" style="enable-background:new 0 0 39 39;" xml:space="preserve">
<style type="text/css">
	.st0{fill:#FFFFFF;}
</style>
<g>
	<g id="XMLID_1_">
		<g>
			<path class="st0" d="M39,9.5v20c0,5.2-4.3,9.5-9.5,9.5h-20C4.3,39,0,34.7,0,29.5v-20C0,4.3,4.3,0,9.5,0h20C34.7,0,39,4.3,39,9.5z
				 M36,29.5v-20C36,5.9,33.1,3,29.5,3h-20C5.9,3,3,5.9,3,9.5v20C3,33.1,5.9,36,9.5,36h20C33.1,36,36,33.1,36,29.5z"/>
			<circle class="st0" cx="28.5" cy="10.5" r="2"/>
			<path class="st0" d="M19.5,11.5c4.4,0,8,3.6,8,8s-3.6,8-8,8s-8-3.6-8-8S15.1,11.5,19.5,11.5z M24.5,19.5c0-2.8-2.2-5-5-5
				s-5,2.2-5,5s2.2,5,5,5S24.5,22.3,24.5,19.5z"/>
		</g>
	</g>
</g>
</svg>
