<svg xmlns="http://www.w3.org/2000/svg" width="43" height="44" viewBox="0 0 43 44">
  <metadata><?xpacket begin="﻿" id="W5M0MpCehiHzreSzNTczkc9d"?>
<x:xmpmeta xmlns:x="adobe:ns:meta/" x:xmptk="Adobe XMP Core 5.6-c142 79.160924, 2017/07/13-01:06:39        ">
   <rdf:RDF xmlns:rdf="http://www.w3.org/1999/02/22-rdf-syntax-ns#">
      <rdf:Description rdf:about=""/>
   </rdf:RDF>
</x:xmpmeta>
                                                                                                    
                                                                                                    
                                                                                                    
                                                                                                    
                                                                                                    
                                                                                                    
                                                                                                    
                                                                                                    
                                                                                                    
                                                                                                    
                                                                                                    
                                                                                                    
                                                                                                    
                                                                                                    
                                                                                                    
                                                                                                    
                                                                                                    
                                                                                                    
                                                                                                    
                                                                                                    
                           
<?xpacket end="w"?></metadata>
<defs>
    <style>
      .cls-1 {
        fill: #fff;
        fill-rule: evenodd;
      }
    </style>
  </defs>
  <path id="logo" class="cls-1" d="M517.939,85a1.718,1.718,0,0,0-.045-0.241c-0.008-.032-0.019-0.071-0.034-0.116a6.315,6.315,0,0,0,.119-0.859c0.029-.478.029-0.985,0.029-1.6,0-.739,0-1.337-0.057-1.91a5.007,5.007,0,0,0-.276-1.278,3.936,3.936,0,0,0-1.159-1.623,13.456,13.456,0,0,0-1.726-1.2c-0.895-.554-1.492-0.909-1.9-1.145,0.009-.074.026-0.149,0.033-0.224,0.045-.481.051-0.985,0.052-1.587V73.158h0c0-.707,0-1.273-0.043-1.821a4.851,4.851,0,0,0-.246-1.242,3.789,3.789,0,0,0-1.137-1.6,14.2,14.2,0,0,0-1.719-1.2c-0.615-.384-1.1-0.692-1.609-0.941a4.972,4.972,0,0,0-.513-0.214c-0.086-.064-0.216-0.155-0.46-0.319-0.406-.272-1.106-0.726-2.323-1.486a15.439,15.439,0,0,0-1.616-.923,3.913,3.913,0,0,0-1.676-.416,3.963,3.963,0,0,0-1.693.421c-0.509.238-1,.535-1.62,0.9-0.873.523-1.439,0.861-1.815,1.085-0.377-.224-0.942-0.561-1.816-1.085-0.617-.367-1.11-0.664-1.619-0.9a3.966,3.966,0,0,0-1.692-.421,3.918,3.918,0,0,0-1.678.416,15.541,15.541,0,0,0-1.616.923c-1.217.76-1.916,1.214-2.323,1.486-0.242.164-.373,0.255-0.46,0.318a5.234,5.234,0,0,0-.512.216c-0.506.248-1,.557-1.61,0.941a16,16,0,0,0-1.556,1.063,4.451,4.451,0,0,0-.891.939,3.52,3.52,0,0,0-.443.905,5.549,5.549,0,0,0-.231,1.4c-0.024.47-.022,0.965-0.023,1.562h0v0.056a14.8,14.8,0,0,0,.078,1.816c-0.413.235-1,.585-1.9,1.14a15.636,15.636,0,0,0-1.562,1.061,4.6,4.6,0,0,0-.905.953,4.14,4.14,0,0,0-.671,1.871,18.054,18.054,0,0,0-.081,2.125c0,0.733,0,1.309.05,1.866a5.446,5.446,0,0,0,.093.623c-0.029.092-.045,0.162-0.056,0.213a3.114,3.114,0,0,0-.038.333c-0.024.362-.048,1.081-0.049,2.886v0.157c0,0.689,0,1.233.048,1.766a4.313,4.313,0,0,0,.278,1.218,3.275,3.275,0,0,0,.514.853,4.8,4.8,0,0,0,1.043.9c0.377,0.252.794,0.5,1.3,0.792a17.131,17.131,0,0,0,1.654.888c0.077,0.035.156,0.064,0.235,0.1-0.02.529-.033,1.234-0.034,2.215v0.125c0,0.726,0,1.293.045,1.837a4.54,4.54,0,0,0,.26,1.228,3.275,3.275,0,0,0,.491.866,4.684,4.684,0,0,0,1.019.928c0.369,0.262.774,0.51,1.267,0.817a26.123,26.123,0,0,0,2.336,1.335,4.829,4.829,0,0,0,.565.236,2.235,2.235,0,0,0,.31.074,6.634,6.634,0,0,0,.521.412c0.384,0.273.806,0.53,1.32,0.842,0.607,0.368,1.088.662,1.586,0.9a3.868,3.868,0,0,0,1.664.418,4.016,4.016,0,0,0,1.666-.408c0.508-.233,1.011-0.523,1.65-0.89a17.37,17.37,0,0,0,1.616-1.015c0.053-.039.1-0.087,0.155-0.13,0.014,0.012.027,0.025,0.041,0.036a14.505,14.505,0,0,0,1.728,1.109c0.638,0.367,1.142.657,1.649,0.89a4.017,4.017,0,0,0,1.667.408,3.875,3.875,0,0,0,1.664-.418c0.5-.237.979-0.531,1.586-0.9a17.577,17.577,0,0,0,1.529-1c0.1-.079.2-0.169,0.3-0.257a2.349,2.349,0,0,0,.32-0.075,15.957,15.957,0,0,0,2.9-1.571c0.583-.363,1.044-0.644,1.468-0.965a4.227,4.227,0,0,0,.883-0.867,3.3,3.3,0,0,0,.463-0.883,5.1,5.1,0,0,0,.241-1.382c0.027-.466.026-0.967,0.027-1.579V96.982c0-.973-0.014-1.686-0.034-2.216,0.079-.029.158-0.059,0.234-0.094a17.138,17.138,0,0,0,1.655-.888c0.6-.352,1.074-0.625,1.506-0.935a4.266,4.266,0,0,0,.906-0.839,3.189,3.189,0,0,0,.485-0.872,4.8,4.8,0,0,0,.258-1.366c0.028-.455.028-0.933,0.028-1.515V88.1c0-1.466-.016-2.221-0.035-2.639C517.963,85.246,517.954,85.124,517.939,85Zm-2.974,3.26c0,0.684,0,1.175-.035,1.464a1.238,1.238,0,0,1-.059.328l-0.021.033a1.878,1.878,0,0,1-.4.315c-0.255.172-.638,0.4-1.141,0.692a14.676,14.676,0,0,1-1.349.733,1.256,1.256,0,0,1-.491.145,1.2,1.2,0,0,1-.483-0.142,13.482,13.482,0,0,1-1.326-.728c-0.585-.349-1.017-0.6-1.276-0.779a1.636,1.636,0,0,1-.3-0.238l0,0-0.018-.059A8.283,8.283,0,0,1,508,88.583c0-.148,0-0.309,0-0.478a10.625,10.625,0,0,1,.085-1.58,1.741,1.741,0,0,1,.128-0.479,1.145,1.145,0,0,1,.378-0.42,14.169,14.169,0,0,1,1.348-.871l2-1.2,0.254-.153,0.034-.021,0.009,0,0,0h0l0.031-.019a1.571,1.571,0,0,0,.466-2.144,1.5,1.5,0,0,0-2.063-.494l0,0-2.276,1.372c-0.57.344-1.049,0.632-1.5,0.962-0.116.087-.228,0.184-0.34,0.28-0.385-.236-0.906-0.563-1.625-1.018-0.581-.369-1.02-0.642-1.3-0.846a2.121,2.121,0,0,1-.375-0.322,0.6,0.6,0,0,1-.143-0.346,8.6,8.6,0,0,1-.083-1.492V79.155c0-.722.014-1.248,0.052-1.579a1.62,1.62,0,0,1,.092-0.443,0.738,0.738,0,0,1,.279-0.315,11.9,11.9,0,0,1,1.363-.866c1.213-.708,1.834-1.068,2.15-1.252l0.282-.162,0.033-.021v0a1.567,1.567,0,0,0,.616-2.075,1.507,1.507,0,0,0-2.053-.657l-0.046.025c-0.06.034-.364,0.209-2.491,1.448a16.785,16.785,0,0,0-1.566.992,4.4,4.4,0,0,0-.932.906,3.549,3.549,0,0,0-.489.9,5.362,5.362,0,0,0-.287,1.444c-0.038.493-.043,1.016-0.046,1.644V79.3a12.5,12.5,0,0,0,.105,1.889,4.229,4.229,0,0,0,.383,1.258,4.089,4.089,0,0,0,1.233,1.425c0.473,0.36.98,0.666,1.618,1.072,0.8,0.5,1.351.851,1.759,1.1a13.317,13.317,0,0,0-.126,2.053c0,0.171,0,.333,0,0.487,0,0.514.011,0.939,0.042,1.351-0.38.237-.9,0.562-1.668,1.043-0.58.365-1.055,0.656-1.494,0.983a4.9,4.9,0,0,0-.923.869,3.991,3.991,0,0,0-.8,1.856,13.305,13.305,0,0,0-.131,2.228v2.96a1.522,1.522,0,1,0,3.044,0v-2.96a12.436,12.436,0,0,1,.066-1.573,1.611,1.611,0,0,1,.106-0.434,0.972,0.972,0,0,1,.339-0.369c0.257-.207.726-0.5,1.385-0.915s1.124-.7,1.485-0.929c0.159,0.12.321,0.232,0.489,0.341,0.357,0.229.75,0.457,1.229,0.743a16.049,16.049,0,0,0,1.654.9c0.034,0.015.072,0.029,0.109,0.043,0.02,0.485.038,1.21,0.036,2.263v0.125c0,0.721,0,1.24-.032,1.558a1.585,1.585,0,0,1-.066.384L509.8,99.1a1.932,1.932,0,0,1-.381.32c-0.246.176-.621,0.41-1.114,0.715-0.115.072-.2,0.125-0.307,0.188,0-.147,0-0.285,0-0.446v-2.96a1.522,1.522,0,1,0-3.043,0v2.96c0,0.73,0,1.26-.033,1.592a1.651,1.651,0,0,1-.073.419l-0.041.073a1.833,1.833,0,0,1-.394.337c-0.251.179-.631,0.416-1.135,0.721-0.6.364-1.031,0.619-1.308,0.748a0.967,0.967,0,0,1-.385.131,1.138,1.138,0,0,1-.43-0.14c-0.3-.135-0.758-0.392-1.388-0.756a14.457,14.457,0,0,1-1.272-.791,1.5,1.5,0,0,1-.3-0.271l-0.041-.071a1.789,1.789,0,0,1-.073-0.462c-0.021-.277-0.026-0.683-0.025-1.215v-9.2a1.522,1.522,0,1,0-3.043,0v8.882c0,0.707,0,1.224-.036,1.545a1.558,1.558,0,0,1-.076.407l-0.05.087a2,2,0,0,1-.431.36c-0.265.185-.663,0.422-1.188,0.726-0.63.364-1.088,0.621-1.388,0.756a1.136,1.136,0,0,1-.429.14,0.967,0.967,0,0,1-.385-0.131c-0.277-.129-0.712-0.384-1.31-0.749s-1.019-.627-1.26-0.812a1.362,1.362,0,0,1-.275-0.255l-0.038-.075a2.464,2.464,0,0,1-.08-0.578c-0.019-.332-0.021-0.8-0.021-1.421v-2.96a1.522,1.522,0,1,0-3.044,0v2.96c0,0.165,0,.3,0,0.449l-0.309-.191c-0.583-.361-1-0.626-1.237-0.805a1.4,1.4,0,0,1-.265-0.238l-0.024-.05A2.14,2.14,0,0,1,483.1,98.5c-0.019-.321-0.021-0.786-0.021-1.394V96.982c0-1.059.017-1.779,0.036-2.263,0.037-.014.074-0.028,0.11-0.043a16.147,16.147,0,0,0,1.653-.9c0.568-.34,1.015-0.595,1.426-0.871,0.1-.068.193-0.144,0.288-0.215,0.363,0.225.837,0.52,1.49,0.932,0.586,0.366,1.021.641,1.291,0.843a1.972,1.972,0,0,1,.359.321,0.832,0.832,0,0,1,.161.442,10.664,10.664,0,0,1,.085,1.685v2.96a1.522,1.522,0,1,0,3.043,0h0v-2.96a14.958,14.958,0,0,0-.1-2.007,4.7,4.7,0,0,0-.357-1.3,4.039,4.039,0,0,0-1.234-1.517,18.992,18.992,0,0,0-1.657-1.109c-0.762-.478-1.282-0.8-1.662-1.039,0.031-.413.036-0.842,0.036-1.357,0-.154,0-0.315,0-0.485h0a13.739,13.739,0,0,0-.122-2.054c0.408-.251.961-0.6,1.754-1.1,0.568-.36,1.031-0.643,1.459-0.953a5.179,5.179,0,0,0,.906-0.81,3.781,3.781,0,0,0,.831-1.776,11.041,11.041,0,0,0,.144-2.1V79.143a19.023,19.023,0,0,0-.071-1.917,4.8,4.8,0,0,0-.3-1.278,3.837,3.837,0,0,0-1.213-1.57,14.407,14.407,0,0,0-1.733-1.121L487.541,72l-0.289-.167-0.046-.026-0.045-.025a1.507,1.507,0,0,0-2.054.657,1.567,1.567,0,0,0,.615,2.075v0c0.026,0.015.335,0.194,2.466,1.435a14.278,14.278,0,0,1,1.276.8,1.512,1.512,0,0,1,.311.282l0.062,0.117a2.289,2.289,0,0,1,.1.594c0.027,0.332.035,0.8,0.037,1.409V79.3a10.081,10.081,0,0,1-.068,1.4,1.158,1.158,0,0,1-.091.341,1.063,1.063,0,0,1-.347.348c-0.268.207-.741,0.5-1.4,0.917-0.724.459-1.237,0.779-1.623,1.016-0.059-.05-0.115-0.1-0.174-0.15a16.577,16.577,0,0,0-1.665-1.09l-1.992-1.2-0.253-.151-0.027-.018,0,0,0,0a1.5,1.5,0,0,0-2.061.489,1.57,1.57,0,0,0,.459,2.144l0.026,0.018,0.061,0.037,2.245,1.353c0.566,0.339.987,0.6,1.255,0.8a1.925,1.925,0,0,1,.374.336,1.058,1.058,0,0,1,.206.517,9.578,9.578,0,0,1,.1,1.7v0c0,0.171,0,.332,0,0.48a11.463,11.463,0,0,1-.041,1.285l-0.031.175-0.011.034-0.045.045a12.384,12.384,0,0,1-1.538.977,13.5,13.5,0,0,1-1.325.728,1.208,1.208,0,0,1-.483.142,1.259,1.259,0,0,1-.492-0.145,14.692,14.692,0,0,1-1.348-.733c-0.6-.347-1.025-0.6-1.27-0.78a1.385,1.385,0,0,1-.275-0.234l-0.018-.033a1.824,1.824,0,0,1-.068-0.472c-0.019-.3-0.023-0.737-0.022-1.313V88.1c0-.116,0-0.221,0-0.327l0.281,0.163c1.22,0.7,1.84,1.065,2.15,1.245l0.263,0.156,0.012,0.008h0a1.493,1.493,0,0,0,.466.2,1.445,1.445,0,0,0,.343.039,1.477,1.477,0,0,0,.368-0.05v0h0a0.179,0.179,0,0,0,.038-0.017,1.491,1.491,0,0,0,.41-0.183c0.007,0,.016-0.007.023-0.013a1.511,1.511,0,0,0,.237-0.2c0.03-.031.068-0.075,0.115-0.133a0.079,0.079,0,0,1,.012-0.016c0.01-.013.017-0.02,0.028-0.036s0.015-.023.022-0.033l0.014-.021a1.407,1.407,0,0,0,.121-0.228c0.005-.014.013-0.026,0.018-0.041s0.014-.04.021-0.06,0.009-.026.014-0.039c0.012-.04.025-0.074,0.036-0.12a0.085,0.085,0,0,0,0-.023,1.5,1.5,0,0,0,.042-0.344h0s0-.006,0-0.011,0-.015,0-0.022a1.782,1.782,0,0,0-.026-0.264c0-.021-0.01-0.041-0.014-0.062a1.386,1.386,0,0,0-.068-0.22c-0.006-.016-0.011-0.031-0.018-0.046-0.024-.055-0.048-0.1-0.068-0.141a0.132,0.132,0,0,0-.014-0.022,0.377,0.377,0,0,0-.02-0.032l-0.012-.019c-0.01-.017-0.02-0.033-0.031-0.049a1.406,1.406,0,0,0-.119-0.156,0,0,0,0,1,0,0,0,0,0,0,1,0,0l-0.042-.046a0.03,0.03,0,0,1-.007-0.008,0.112,0.112,0,0,1-.017-0.017,1.307,1.307,0,0,0-.158-0.135l-0.036-.025-0.026-.018-0.059-.04c-0.069-.043-0.178-0.108-0.54-0.32s-0.962-.558-1.973-1.142c-0.634-.363-1.087-0.631-1.35-0.817a1.506,1.506,0,0,1-.3-0.257l-0.028-.051a1.953,1.953,0,0,1-.078-0.527c-0.02-.321-0.024-0.79-0.023-1.4,0-.723.008-1.255,0.042-1.6a1.936,1.936,0,0,1,.093-0.486,0.818,0.818,0,0,1,.289-0.362,11.311,11.311,0,0,1,1.329-.907c0.877-.542,1.45-0.881,1.817-1.092,0.152,0.119.305,0.235,0.466,0.345,0.387,0.263.816,0.517,1.329,0.826,1.185,0.712,1.791,1.075,2.1,1.26,0.156,0.093.238,0.142,0.286,0.17l0.059,0.035,0.032,0.017h0l0.012,0.007,0.016,0.007h0l0.048,0.024h0l0,0,0.027,0.012a0.2,0.2,0,0,0,.025.011l0.052,0.021,0.053,0.018,0.026,0.009,0-.005c0.031,0.009.06,0.02,0.091,0.028s0.046,0.013.07,0.016,0.046,0,.069.008,0.062,0.014.089,0.016,0.043,0,.067,0,0.039,0.007.06,0.007,0.039-.006.06-0.007,0.046,0,.069,0c0.05-.005.091-0.011,0.133-0.02l0.07-.012,0.036-.006c0.033-.01.053-0.018,0.079-0.027l0.05-.015c0.028-.01.059-0.02,0.082-0.03l0.031-.014,0.07-.031,0-.007c0.033-.017.065-0.034,0.1-0.053,0.014-.009.031-0.013,0.047-0.023a0.091,0.091,0,0,1,.01-0.009,1.563,1.563,0,0,0,.266-0.226c0.021-.022.037-0.045,0.057-0.071a1.551,1.551,0,0,0,.149-0.212c0.019-.032.036-0.064,0.053-0.1a1.423,1.423,0,0,0,.091-0.238c0.01-.033.023-0.064,0.03-0.1a1.621,1.621,0,0,0,.044-0.359,1.51,1.51,0,0,0-.8-1.349l0-.012-0.432-.256c-0.34-.2-0.928-0.554-1.943-1.165-0.608-.366-1.055-0.637-1.33-0.836a1.9,1.9,0,0,1-.352-0.3l-0.058-.1a1.735,1.735,0,0,1-.095-0.487c-0.026-.293-0.037-0.724-0.036-1.295V73.161h0c0-.711,0-1.231.031-1.563a1.732,1.732,0,0,1,.074-0.44,0.679,0.679,0,0,1,.25-0.3,11.8,11.8,0,0,1,1.338-.917c0.607-.381,1.048-0.651,1.331-0.786a0.957,0.957,0,0,1,.388-0.137,1.071,1.071,0,0,1,.423.145c0.3,0.139.76,0.407,1.39,0.791,1.148,0.7,1.747,1.069,2.044,1.259,0.146,0.094.221,0.145,0.231,0.151h0a1.493,1.493,0,0,0,.921.323l0.161-.008a1.59,1.59,0,0,0,.278-0.057,1.53,1.53,0,0,0,.916-0.778,1.61,1.61,0,0,0,.168-0.71,1.551,1.551,0,0,0-.222-0.808,1.534,1.534,0,0,0-.269-0.335,1.941,1.941,0,0,0-.169-0.141c-0.13-.093-0.271-0.187-0.641-0.42s-0.941-.586-1.863-1.143c-0.125-.078-0.227-0.135-0.342-0.206,0.055-.034.1-0.062,0.158-0.1a13.739,13.739,0,0,1,1.292-.748,1.036,1.036,0,0,1,.411-0.133,1.1,1.1,0,0,1,.428.14c0.291,0.135.735,0.392,1.341,0.756,0.9,0.541,1.488.888,1.87,1.114V82.178c0,0.736,0,1.258-.033,1.56a1.259,1.259,0,0,1-.056.319l0,0a2.136,2.136,0,0,1-.406.308c-0.275.176-.688,0.415-1.229,0.733-1.249.737-1.889,1.117-2.219,1.313-0.166.1-.253,0.151-0.3,0.183l-0.059.035-0.029.019-0.025.016-0.021.015h0l-0.032.025a1.573,1.573,0,0,0-.331,2.168,1.5,1.5,0,0,0,2.031.395l0,0.005,0.015-.008c0.1-.06.579-0.349,2.5-1.479,0.61-.361,1.082-0.626,1.516-0.92,0.067-.047.133-0.1,0.2-0.15a14.4,14.4,0,0,0,1.582,1.059c2.361,1.434,2.617,1.583,2.643,1.6a1.508,1.508,0,0,0,2.077-.579,1.572,1.572,0,0,0-.566-2.117h0c-0.019-.01-0.391-0.232-2.6-1.571a13.955,13.955,0,0,1-1.21-.787,1.315,1.315,0,0,1-.258-0.245L498.154,84a2.442,2.442,0,0,1-.079-0.582c-0.018-.33-0.02-0.8-0.02-1.4V68.067c0.381-.227.945-0.562,1.8-1.075,0.607-.364,1.051-0.621,1.343-0.756a1.093,1.093,0,0,1,.429-0.14,1.042,1.042,0,0,1,.409.133,13.485,13.485,0,0,1,1.292.748c0.06,0.037.1,0.064,0.158,0.1-0.115.07-.216,0.127-0.342,0.205-1.159.7-1.77,1.083-2.108,1.3-0.168.109-.266,0.173-0.349,0.232l-0.148.114-0.162.159a1.352,1.352,0,0,0-.174.237,1.539,1.539,0,0,0-.223.808,1.588,1.588,0,0,0,.311.941,1.514,1.514,0,0,0,.545.454,1.458,1.458,0,0,0,.494.149,1.423,1.423,0,0,0,.174.009,1.5,1.5,0,0,0,.921-0.323h0c0.021-.014.175-0.118,0.521-0.334s0.9-.558,1.754-1.076c0.629-.384,1.089-0.652,1.389-0.791a1.081,1.081,0,0,1,.423-0.145,0.962,0.962,0,0,1,.389.137c0.282,0.136.723,0.406,1.331,0.786a13.625,13.625,0,0,1,1.255.848,1.391,1.391,0,0,1,.287.283l0.051,0.106a2.522,2.522,0,0,1,.08.594c0.019,0.329.019,0.793,0.019,1.391v0.054a12.056,12.056,0,0,1-.053,1.442,1.245,1.245,0,0,1-.082.352l-0.065.1a2.689,2.689,0,0,1-.481.387c-0.278.188-.676,0.43-1.189,0.737-1.184.711-1.786,1.072-2.091,1.252l-0.265.157-0.019.01v0l0.009,0.017a1.537,1.537,0,0,0-.761.987,1.657,1.657,0,0,0-.021.357h-0.019s0,0.005,0,.009c0,0.037.008,0.07,0.011,0.106s0,0.065.009,0.1,0.009,0.083.018,0.122c0,0.018.008,0.034,0.013,0.053a0.183,0.183,0,0,1,0,.026c0.006,0.023.019,0.045,0.026,0.069a0.041,0.041,0,0,1,0,.008,1.319,1.319,0,0,0,.043.126,0.04,0.04,0,0,1,0,.011l0.01,0.015c0,0.013.012,0.022,0.016,0.033,0.017,0.036.034,0.067,0.051,0.1,0,0.008.006,0.016,0.009,0.021a0.065,0.065,0,0,0,.006.008l0.009,0.018,0.022,0.031a0.352,0.352,0,0,0,.025.035c0.018,0.028.038,0.059,0.056,0.081s0.049,0.053.074,0.081l0.028,0.035a0.094,0.094,0,0,0,.008.009c0.007,0.008.016,0.013,0.023,0.02l0.022,0.024a0.027,0.027,0,0,1,0,0c0.046,0.043.084,0.072,0.116,0.1l0.043,0.029c0.01,0.007.019,0.015,0.031,0.023l0.017,0.011c0.062,0.04.109,0.067,0.141,0.085l0.017,0.005c0.017,0.01.032,0.014,0.048,0.023a0.524,0.524,0,0,0,.05.02c0.029,0.012.059,0.026,0.083,0.035h0l0.008,0a1.4,1.4,0,0,0,.15.042l0.006,0a0.051,0.051,0,0,0,.014,0l0.014,0,0.01,0a1.449,1.449,0,0,0,.279.028h0a1.385,1.385,0,0,0,.293-0.031l0.031-.007,0.062-.014a1.925,1.925,0,0,0,.2-0.069h0a0.028,0.028,0,0,1,.013-0.006c0.091-.042.1-0.047,0.117-0.058l0.127-.074c0.185-.107.718-0.425,2.346-1.4,0.608-.365,1.1-0.655,1.541-0.975,0.086-.061.167-0.132,0.25-0.2,0.368,0.211.941,0.55,1.821,1.095a12.817,12.817,0,0,1,1.245.837,1.63,1.63,0,0,1,.309.307,1,1,0,0,1,.142.489,15.131,15.131,0,0,1,.057,1.723c0,0.727,0,1.25-.036,1.566a1.419,1.419,0,0,1-.069.373l-0.032.051a2.119,2.119,0,0,1-.432.341c-0.272.18-.678,0.417-1.211,0.724-1.223.705-1.847,1.069-2.169,1.255-0.161.1-.246,0.145-0.3,0.179l-0.075.046-0.072.05-0.019.014h0l-0.065.052h0l-0.031.025c-0.02.019-.045,0.043-0.076,0.075a0.006,0.006,0,0,0,0,0c-0.008.008-.019,0.022-0.028,0.031s-0.032.033-.055,0.061l-0.016.021c-0.008.009-.015,0.02-0.024,0.03l-0.034.045-0.034.05-0.016.024,0,0c-0.015.022-.027,0.037-0.042,0.061a1.587,1.587,0,0,0-.195.646c0,0.04.006,0.085,0.006,0.127h-0.012a1.325,1.325,0,0,0,.019.136,1.215,1.215,0,0,0,.026.2,1.513,1.513,0,0,0,.064.206c0.016,0.043.022,0.089,0.04,0.13,0.01,0.02.024,0.036,0.034,0.054s0.011,0.033.018,0.045c0.022,0.039.046,0.063,0.068,0.1a1.407,1.407,0,0,0,.087.125c0.033,0.04.066,0.074,0.1,0.107,0.018,0.018.037,0.043,0.054,0.059s0.012,0.008.019,0.015a1.459,1.459,0,0,0,.253.179c0.017,0.011.031,0.019,0.046,0.027s0.03,0.018.042,0.023,0.029,0.01.048,0.018,0.071,0.033.1,0.044,0.068,0.018.1,0.029,0.064,0.02.091,0.025,0.071,0.015.1,0.019l0.032,0.006h0.011l0.017,0,0.156,0.008h0.022a1.427,1.427,0,0,0,.276-0.028,1.509,1.509,0,0,0,.511-0.211l0,0,0.1-.058c0.216-.129.807-0.473,2.327-1.35l0.282-.164c0,0.11,0,.209,0,0.328v0.157Zm-7.705-13.73h0v0Zm-21.536-.01h0v0Zm-5.009,14.807,0,0,0,0h0Zm-0.213-.18h0l0,0Zm0.085,0.084h0v0Zm2.426-.834h0l0.013,0h0Zm-0.03-.873h0Zm-0.309-.531,0,0h0l0,0h0Zm4.308-9.474h0v0Zm3.534-6.207,0,0,0,0h0Zm-0.317-.376h0Zm0.559-2.154h0l0-.007Zm10.888-.188v0h0Zm0.246,0.043v0h0Zm0.731,0.45,0,0,0,0h0Zm-0.081,2.175h0l0,0Zm4.347,6.283h0v0Zm-1.02.023h0l0,0Zm-0.1.039h0Zm-0.745,2.037v0h0v0h0Zm0.477,0.609h0Zm0.63,0.287h0Zm6.734,6.935h0l0,0Zm-0.914-.9h0v0Zm0.323,2.763h0Zm0.235-.19h0Z" transform="translate(-475 -63)"/>
</svg>
