<svg xmlns="http://www.w3.org/2000/svg" width="48" height="48" viewBox="0 0 48 48">
  <metadata><?xpacket begin="﻿" id="W5M0MpCehiHzreSzNTczkc9d"?>
<x:xmpmeta xmlns:x="adobe:ns:meta/" x:xmptk="Adobe XMP Core 5.6-c142 79.160924, 2017/07/13-01:06:39        ">
   <rdf:RDF xmlns:rdf="http://www.w3.org/1999/02/22-rdf-syntax-ns#">
      <rdf:Description rdf:about=""/>
   </rdf:RDF>
</x:xmpmeta>
                                                                                                    
                                                                                                    
                                                                                                    
                                                                                                    
                                                                                                    
                                                                                                    
                                                                                                    
                                                                                                    
                                                                                                    
                                                                                                    
                                                                                                    
                                                                                                    
                                                                                                    
                                                                                                    
                                                                                                    
                                                                                                    
                                                                                                    
                                                                                                    
                                                                                                    
                                                                                                    
                           
<?xpacket end="w"?></metadata>
<defs>
    <style>
      .cls-1 {
        fill: #fff;
        fill-rule: evenodd;
      }
    </style>
  </defs>
  <path class="cls-1" d="M503.5,2755h-18a1.5,1.5,0,0,1,0-3h18A1.5,1.5,0,1,1,503.5,2755Zm0,6h-18a1.5,1.5,0,0,1,0-3h18A1.5,1.5,0,1,1,503.5,2761Zm0,6h-18a1.5,1.5,0,0,1,0-3h18A1.5,1.5,0,1,1,503.5,2767Zm-9,6h-9a1.5,1.5,0,0,1,0-3h9A1.5,1.5,0,1,1,494.5,2773Zm22.5,9a1.5,1.5,0,0,1-1.5-1.5v-24.82a1.5,1.5,0,0,1,3,0v24.82A1.5,1.5,0,0,1,517,2782Zm0,6a5.547,5.547,0,0,1-1-.09,1.364,1.364,0,0,1-.5.09H481a6.005,6.005,0,0,1-6-6v-38.26a3.749,3.749,0,0,1,3.747-3.74h31.506a3.75,3.75,0,0,1,3.747,3.74V2782a3,3,0,0,0,6,0v-24a1.5,1.5,0,0,1,3,0v24A6.005,6.005,0,0,1,517,2788Zm-38.253-45a0.743,0.743,0,0,0-.747.74V2782a3.006,3.006,0,0,0,3,3H511.8a5.977,5.977,0,0,1-.805-3v-38.26a0.744,0.744,0,0,0-.747-0.74H478.745Z" transform="translate(-475 -2740)"/>
</svg>
