<svg xmlns="http://www.w3.org/2000/svg" width="48" height="48" viewBox="0 0 48 48">
  <metadata><?xpacket begin="﻿" id="W5M0MpCehiHzreSzNTczkc9d"?>
<x:xmpmeta xmlns:x="adobe:ns:meta/" x:xmptk="Adobe XMP Core 5.6-c142 79.160924, 2017/07/13-01:06:39        ">
   <rdf:RDF xmlns:rdf="http://www.w3.org/1999/02/22-rdf-syntax-ns#">
      <rdf:Description rdf:about=""/>
   </rdf:RDF>
</x:xmpmeta>
                                                                                                    
                                                                                                    
                                                                                                    
                                                                                                    
                                                                                                    
                                                                                                    
                                                                                                    
                                                                                                    
                                                                                                    
                                                                                                    
                                                                                                    
                                                                                                    
                                                                                                    
                                                                                                    
                                                                                                    
                                                                                                    
                                                                                                    
                                                                                                    
                                                                                                    
                                                                                                    
                           
<?xpacket end="w"?></metadata>
<defs>
    <style>
      .cls-1 {
        fill: #fff;
        fill-rule: evenodd;
      }
    </style>
  </defs>
  <path class="cls-1" d="M1045.5,1667h-45a1.5,1.5,0,1,1,0-3h45A1.5,1.5,0,0,1,1045.5,1667Zm-13.5,0a1.5,1.5,0,0,1-1.5-1.5v-42a1.5,1.5,0,0,0-3,0v42a1.5,1.5,0,0,1-3,0v-42a4.5,4.5,0,0,1,9,0v42A1.5,1.5,0,0,1,1032,1667Zm12,0a1.5,1.5,0,0,1-1.5-1.5v-15a1.5,1.5,0,0,0-3,0v15a1.5,1.5,0,0,1-3,0v-15a4.5,4.5,0,0,1,9,0v15A1.5,1.5,0,0,1,1044,1667Zm-36,0a1.5,1.5,0,0,1-1.5-1.5v-15a1.5,1.5,0,0,0-3,0v15a1.5,1.5,0,0,1-3,0v-15a4.5,4.5,0,0,1,9,0v15A1.5,1.5,0,0,1,1008,1667Zm12,0a1.5,1.5,0,0,1-1.5-1.5V1637a1.5,1.5,0,0,0-3,0v28.5a1.5,1.5,0,0,1-3,0V1637a4.5,4.5,0,0,1,9,0v28.5A1.5,1.5,0,0,1,1020,1667Z" transform="translate(-999 -1619)"/>
</svg>
