<svg xmlns="http://www.w3.org/2000/svg" width="47.719" height="47.88" viewBox="0 0 47.719 47.88">
  <metadata><?xpacket begin="﻿" id="W5M0MpCehiHzreSzNTczkc9d"?>
<x:xmpmeta xmlns:x="adobe:ns:meta/" x:xmptk="Adobe XMP Core 5.6-c142 79.160924, 2017/07/13-01:06:39        ">
   <rdf:RDF xmlns:rdf="http://www.w3.org/1999/02/22-rdf-syntax-ns#">
      <rdf:Description rdf:about=""/>
   </rdf:RDF>
</x:xmpmeta>
                                                                                                    
                                                                                                    
                                                                                                    
                                                                                                    
                                                                                                    
                                                                                                    
                                                                                                    
                                                                                                    
                                                                                                    
                                                                                                    
                                                                                                    
                                                                                                    
                                                                                                    
                                                                                                    
                                                                                                    
                                                                                                    
                                                                                                    
                                                                                                    
                                                                                                    
                                                                                                    
                           
<?xpacket end="w"?></metadata>
<defs>
    <style>
      .cls-1 {
        fill: #fff;
        fill-rule: evenodd;
      }
    </style>
  </defs>
  <path class="cls-1" d="M494.385,3531.33a1.494,1.494,0,0,1-1.055-.44l-10.193-10.22a1.5,1.5,0,0,1,0-2.12l22.473-22.53c2.937-2.95,5.1-4.21,7.724-4.5l3.744-.42a5.209,5.209,0,0,1,5.737,5.76l-0.416,3.75c-0.291,2.63-1.551,4.8-4.488,7.74l-22.471,22.54A1.5,1.5,0,0,1,494.385,3531.33Zm-8.082-11.72,8.082,8.11,21.419-21.48c2.772-2.78,3.456-4.4,3.632-5.96l0.414-3.75a2.22,2.22,0,0,0-2.443-2.46l-3.744.42c-1.561.17-3.169,0.86-5.943,3.64Zm15.663,19.32a1.491,1.491,0,0,1-1.054-.44l-7.458-7.48a1.492,1.492,0,1,1,2.109-2.11l6.4,6.42,1.936-1.94a3.576,3.576,0,0,0,1.047-2.54v-12.85a1.492,1.492,0,1,1,2.983,0v12.85a6.524,6.524,0,0,1-1.922,4.65l-2.989,3A1.5,1.5,0,0,1,501.966,3538.93Zm-12.678-12.71a1.5,1.5,0,0,1-1.054-2.56l9.695-9.72a1.5,1.5,0,0,1,2.109,2.12l-9.695,9.72A1.5,1.5,0,0,1,489.288,3526.22Zm-12.678,12.71a1.471,1.471,0,0,1-1.1-.49,1.489,1.489,0,0,1-.317-1.47l4.412-13.4a1.478,1.478,0,0,1,1.885-.95,1.5,1.5,0,0,1,.948,1.89l-3.578,10.86,10.708-2.51a1.5,1.5,0,0,1,.679,2.92l-13.3,3.11Zm38.268-35.38a1.5,1.5,0,0,1-1.055-.44l-2.982-2.99a1.495,1.495,0,0,1,2.108-2.12l2.983,2.99A1.5,1.5,0,0,1,514.878,3503.55Zm-30.81,17.43a1.456,1.456,0,0,1-1.055-.44l-7.457-7.47a1.5,1.5,0,0,1,0-2.12l2.991-3a6.5,6.5,0,0,1,4.637-1.92H496a1.5,1.5,0,0,1,0,2.99H483.184a3.534,3.534,0,0,0-2.528,1.05l-1.936,1.94,6.4,6.42a1.491,1.491,0,0,1,0,2.11A1.454,1.454,0,0,1,484.068,3520.98Z" transform="translate(-475.125 -3491.06)"/>
</svg>
