<svg xmlns="http://www.w3.org/2000/svg" width="48" height="48" viewBox="0 0 48 48">
  <metadata><?xpacket begin="﻿" id="W5M0MpCehiHzreSzNTczkc9d"?>
<x:xmpmeta xmlns:x="adobe:ns:meta/" x:xmptk="Adobe XMP Core 5.6-c142 79.160924, 2017/07/13-01:06:39        ">
   <rdf:RDF xmlns:rdf="http://www.w3.org/1999/02/22-rdf-syntax-ns#">
      <rdf:Description rdf:about=""/>
   </rdf:RDF>
</x:xmpmeta>
                                                                                                    
                                                                                                    
                                                                                                    
                                                                                                    
                                                                                                    
                                                                                                    
                                                                                                    
                                                                                                    
                                                                                                    
                                                                                                    
                                                                                                    
                                                                                                    
                                                                                                    
                                                                                                    
                                                                                                    
                                                                                                    
                                                                                                    
                                                                                                    
                                                                                                    
                                                                                                    
                           
<?xpacket end="w"?></metadata>
<defs>
    <style>
      .cls-1 {
        fill: #fff;
        fill-rule: evenodd;
      }
    </style>
  </defs>
  <path class="cls-1" d="M1045.5,3157a1.5,1.5,0,0,1-1.5-1.5v-36.76a0.747,0.747,0,0,0-.75-0.74h-30.01a0.738,0.738,0,0,0-.74.74v33.76a1.5,1.5,0,0,1-3,0v-33.76a3.747,3.747,0,0,1,3.74-3.74h30.01a3.749,3.749,0,0,1,3.75,3.74v36.76A1.5,1.5,0,0,1,1045.5,3157Zm-6,6h-33a7.511,7.511,0,0,1-7.5-7.5v-0.75a3.753,3.753,0,0,1,3.752-3.75h30a3.751,3.751,0,0,1,3.75,3.75v0.75a1.5,1.5,0,0,1-3,0v-0.75a0.749,0.749,0,0,0-.75-0.75h-30a0.749,0.749,0,0,0-.75.75v0.75a4.507,4.507,0,0,0,4.5,4.5h33A1.5,1.5,0,0,1,1039.5,3163Zm-18-30a1.5,1.5,0,0,1-1.06-.44l-3-3a1.5,1.5,0,0,1,2.12-2.12l1.78,1.77,3.46-4.61a1.5,1.5,0,1,1,2.4,1.8l-4.5,6a1.517,1.517,0,0,1-1.1.59Zm0,12a1.5,1.5,0,0,1-1.06-.44l-3-3a1.5,1.5,0,0,1,2.12-2.12l1.78,1.77,3.46-4.61a1.5,1.5,0,1,1,2.4,1.8l-4.5,6a1.517,1.517,0,0,1-1.1.59Zm16.5-15h-6a1.5,1.5,0,0,1,0-3h6A1.5,1.5,0,0,1,1038,3130Zm0,12h-6a1.5,1.5,0,0,1,0-3h6A1.5,1.5,0,0,1,1038,3142Zm2.25,21a1.5,1.5,0,0,1,0-3c2.07,0,3.75-2.02,3.75-4.5a1.5,1.5,0,0,1,3,0C1047,3159.63,1043.97,3163,1040.25,3163Zm0,0a6.858,6.858,0,0,1-6.4-5.12,7.975,7.975,0,0,1-.35-2.38,1.5,1.5,0,0,1,3,0,5.062,5.062,0,0,0,.22,1.51,3.882,3.882,0,0,0,3.53,2.99A1.5,1.5,0,0,1,1040.25,3163Z" transform="translate(-999 -3115)"/>
</svg>
