<svg xmlns="http://www.w3.org/2000/svg" width="48" height="42" viewBox="0 0 48 42">
  <metadata><?xpacket begin="﻿" id="W5M0MpCehiHzreSzNTczkc9d"?>
<x:xmpmeta xmlns:x="adobe:ns:meta/" x:xmptk="Adobe XMP Core 5.6-c142 79.160924, 2017/07/13-01:06:39        ">
   <rdf:RDF xmlns:rdf="http://www.w3.org/1999/02/22-rdf-syntax-ns#">
      <rdf:Description rdf:about=""/>
   </rdf:RDF>
</x:xmpmeta>
                                                                                                    
                                                                                                    
                                                                                                    
                                                                                                    
                                                                                                    
                                                                                                    
                                                                                                    
                                                                                                    
                                                                                                    
                                                                                                    
                                                                                                    
                                                                                                    
                                                                                                    
                                                                                                    
                                                                                                    
                                                                                                    
                                                                                                    
                                                                                                    
                                                                                                    
                                                                                                    
                           
<?xpacket end="w"?></metadata>
<defs>
    <style>
      .cls-1 {
        fill: #fff;
        fill-rule: evenodd;
      }
    </style>
  </defs>
  <path class="cls-1" d="M1043.25,2410h-40.5a3.753,3.753,0,0,1-3.752-3.75v-34.5a3.753,3.753,0,0,1,3.752-3.75h40.5a3.751,3.751,0,0,1,3.75,3.75v34.5A3.751,3.751,0,0,1,1043.25,2410Zm-40.5-39a0.743,0.743,0,0,0-.75.75v34.5a0.749,0.749,0,0,0,.75.75h40.5a0.755,0.755,0,0,0,.75-0.75v-34.5a0.749,0.749,0,0,0-.75-0.75h-40.5Zm42.75,9h-45a1.5,1.5,0,1,1,0-3h45A1.5,1.5,0,0,1,1045.5,2380Zm-40.5-4.5a1.6,1.6,0,0,1-1.07-.44,1.551,1.551,0,0,1-.43-1.06,1.5,1.5,0,1,1,3,0A1.5,1.5,0,0,1,1005,2375.5Zm4.5,0a1.6,1.6,0,0,1-1.07-.44,1.551,1.551,0,0,1-.43-1.06,1.5,1.5,0,1,1,3,0A1.5,1.5,0,0,1,1009.5,2375.5ZM1032,2401a1.5,1.5,0,0,1-1.06-2.56l4.41-4.41a0.754,0.754,0,0,0,0-1.06l-4.41-4.41a1.5,1.5,0,0,1,2.12-2.12l4.41,4.41a3.754,3.754,0,0,1,0,5.3l-4.41,4.41A1.508,1.508,0,0,1,1032,2401Zm-18,0a1.491,1.491,0,0,1-1.06-.44l-4.41-4.41a3.754,3.754,0,0,1,0-5.3l4.41-4.41a1.5,1.5,0,0,1,2.12,2.12l-4.41,4.41a0.754,0.754,0,0,0,0,1.06l4.41,4.41a1.491,1.491,0,0,1,0,2.12A1.508,1.508,0,0,1,1014,2401Zm6,1.5a1.551,1.551,0,0,1-.56-0.11,1.5,1.5,0,0,1-.83-1.95l6-15a1.5,1.5,0,1,1,2.78,1.12l-6,15A1.5,1.5,0,0,1,1020,2402.5Z" transform="translate(-999 -2368)"/>
</svg>
