<svg xmlns="http://www.w3.org/2000/svg" width="48" height="48" viewBox="0 0 48 48">
  <metadata><?xpacket begin="﻿" id="W5M0MpCehiHzreSzNTczkc9d"?>
<x:xmpmeta xmlns:x="adobe:ns:meta/" x:xmptk="Adobe XMP Core 5.6-c142 79.160924, 2017/07/13-01:06:39        ">
   <rdf:RDF xmlns:rdf="http://www.w3.org/1999/02/22-rdf-syntax-ns#">
      <rdf:Description rdf:about=""/>
   </rdf:RDF>
</x:xmpmeta>
                                                                                                    
                                                                                                    
                                                                                                    
                                                                                                    
                                                                                                    
                                                                                                    
                                                                                                    
                                                                                                    
                                                                                                    
                                                                                                    
                                                                                                    
                                                                                                    
                                                                                                    
                                                                                                    
                                                                                                    
                                                                                                    
                                                                                                    
                                                                                                    
                                                                                                    
                                                                                                    
                           
<?xpacket end="w"?></metadata>
<defs>
    <style>
      .cls-1 {
        fill: #fff;
        fill-rule: evenodd;
      }
    </style>
  </defs>
  <path class="cls-1" d="M485.5,2004h-9a1.506,1.506,0,0,1-1.5-1.5V1998a6,6,0,0,1,12,0v4.5A1.506,1.506,0,0,1,485.5,2004Zm-7.5-3h6v-3a3,3,0,0,0-6,0v3Zm37.5,30a1.5,1.5,0,0,1-1.5-1.5V1998a3,3,0,0,0-3-3,1.5,1.5,0,0,1,0-3,6.005,6.005,0,0,1,6,6v31.5A1.5,1.5,0,0,1,515.5,2031Zm-25.5,9a6.005,6.005,0,0,1-6-6v-4.5a1.5,1.5,0,0,1,3,0v4.5a3,3,0,0,0,6,0v-4.5a1.5,1.5,0,1,1,3,0v4.5A6.005,6.005,0,0,1,490,2040Zm27,0a1.5,1.5,0,0,1,0-3,3.006,3.006,0,0,0,3-3v-4.5a1.5,1.5,0,0,1,3,0v4.5A6.005,6.005,0,0,1,517,2040Zm-6-45H481a1.5,1.5,0,0,1,0-3h30A1.5,1.5,0,1,1,511,1995Zm6,45H490a1.5,1.5,0,0,1,0-3h27A1.5,1.5,0,0,1,517,2040Zm-31.5-9a1.5,1.5,0,0,1-1.5-1.5v-27a1.5,1.5,0,0,1,3,0v27A1.5,1.5,0,0,1,485.5,2031Zm36,0h-27a1.5,1.5,0,0,1,0-3h27A1.5,1.5,0,0,1,521.5,2031Zm-12-27h-18a1.5,1.5,0,0,1,0-3h18A1.5,1.5,0,1,1,509.5,2004Zm0,6h-18a1.5,1.5,0,0,1,0-3h18A1.5,1.5,0,1,1,509.5,2010Zm0,6h-18a1.5,1.5,0,0,1,0-3h18A1.5,1.5,0,1,1,509.5,2016Zm-9,6h-9a1.5,1.5,0,0,1,0-3h9A1.5,1.5,0,1,1,500.5,2022Z" transform="translate(-475 -1992)"/>
</svg>
