<?xml version="1.0" encoding="utf-8"?>
<!-- Generator: Adobe Illustrator 22.0.1, SVG Export Plug-In . SVG Version: 6.00 Build 0)  -->
<svg version="1.1" id="vkontakte" xmlns="http://www.w3.org/2000/svg" xmlns:xlink="http://www.w3.org/1999/xlink" x="0px" y="0px"
	 viewBox="0 0 39 39" style="enable-background:new 0 0 39 39;" xml:space="preserve">
<style type="text/css">
	.st0{fill:#FFFFFF;}
</style>
<g id="Rounded_Rectangle_10">
	<path class="st0" d="M29.5,39h-20C4.3,39,0,34.7,0,29.5v-20C0,4.3,4.3,0,9.5,0h20C34.7,0,39,4.3,39,9.5v20C39,34.7,34.7,39,29.5,39
		z M9.5,3C5.9,3,3,5.9,3,9.5v20C3,33.1,5.9,36,9.5,36h20c3.6,0,6.5-2.9,6.5-6.5v-20C36,5.9,33.1,3,29.5,3H9.5z"/>
</g>
<g id="Rounded_Rectangle_11">
	<path class="st0" d="M27.8,14.9h-2.9c-0.2,0-0.5,0.1-0.6,0.3c0,0-1.2,2.1-1.5,2.8c-1,1.9-1.7,1.3-1.7,0.4v-3c0-0.5-0.4-1-1-1h-2.2
		c-0.6,0-1.2,0.2-1.6,0.7c0,0,1.1-0.2,1.1,1.3c0,0.4,0,1.4,0,2.3c0,0.4-0.3,0.6-0.6,0.6c-0.2,0-0.4-0.1-0.5-0.2
		c-0.9-1.2-1.6-2.5-2.2-4c-0.1-0.2-0.3-0.4-0.6-0.4H11c-0.2,0-0.4,0.2-0.5,0.4c0,0,0,0,0,0c0,0.1,0,0.1,0,0.2c0.8,2.2,4.3,9,8.2,9
		h1.7c0.4,0,0.7-0.3,0.7-0.6v-1c0-0.4,0.3-0.6,0.6-0.6c0,0,0,0,0,0c0.2,0,0.3,0.1,0.4,0.2l2,1.8c0.2,0.2,0.4,0.3,0.7,0.3h2.6
		c1.3,0,1.3-0.9,0.6-1.5c-0.5-0.5-2.2-2.3-2.2-2.3c-0.3-0.3-0.3-0.8-0.1-1.1c0.6-0.7,1.5-1.9,1.9-2.4C28.1,16.4,29.1,14.9,27.8,14.9
		z"/>
</g>
</svg>
