<?xml version="1.0" encoding="utf-8"?>
<!-- Generator: Adobe Illustrator 22.0.1, SVG Export Plug-In . SVG Version: 6.00 Build 0)  -->
<svg version="1.1" id="youtub" xmlns="http://www.w3.org/2000/svg" xmlns:xlink="http://www.w3.org/1999/xlink" x="0px" y="0px"
	 viewBox="0 0 39 39" style="enable-background:new 0 0 39 39;" xml:space="preserve">
<style type="text/css">
	.st0{fill:#FFFFFF;}
</style>
<g id="Rounded_Rectangle_10">
	<path class="st0" d="M29.5,39h-20C4.3,39,0,34.7,0,29.5v-20C0,4.3,4.3,0,9.5,0h20C34.7,0,39,4.3,39,9.5v20C39,34.7,34.7,39,29.5,39
		z M9.5,3C5.9,3,3,5.9,3,9.5v20C3,33.1,5.9,36,9.5,36h20c3.6,0,6.5-2.9,6.5-6.5v-20C36,5.9,33.1,3,29.5,3H9.5z"/>
</g>
<g id="Rounded_Rectangle_11">
	<path class="st0" d="M15.5,24.5v-10l10,5L15.5,24.5z"/>
</g>
</svg>
