<svg xmlns="http://www.w3.org/2000/svg" width="22.938" height="20" viewBox="0 0 22.938 20">
  <metadata><?xpacket begin="﻿" id="W5M0MpCehiHzreSzNTczkc9d"?>
<x:xmpmeta xmlns:x="adobe:ns:meta/" x:xmptk="Adobe XMP Core 5.6-c142 79.160924, 2017/07/13-01:06:39        ">
   <rdf:RDF xmlns:rdf="http://www.w3.org/1999/02/22-rdf-syntax-ns#">
      <rdf:Description rdf:about=""/>
   </rdf:RDF>
</x:xmpmeta>
                                                                                                    
                                                                                                    
                                                                                                    
                                                                                                    
                                                                                                    
                                                                                                    
                                                                                                    
                                                                                                    
                                                                                                    
                                                                                                    
                                                                                                    
                                                                                                    
                                                                                                    
                                                                                                    
                                                                                                    
                                                                                                    
                                                                                                    
                                                                                                    
                                                                                                    
                                                                                                    
                           
<?xpacket end="w"?></metadata>
<defs>
    <style>
      .cls-1 {
        fill: #1d354e;
        fill-rule: evenodd;
      }
    </style>
  </defs>
  <path class="cls-1" d="M544.405,6112.59l5.3,1.97,2.052,6.59a0.625,0.625,0,0,0,.99.3l2.955-2.41a0.893,0.893,0,0,1,1.075-.03l5.327,3.87a0.629,0.629,0,0,0,.978-0.38l3.9-18.75a0.626,0.626,0,0,0-.837-0.71l-21.749,8.38A0.626,0.626,0,0,0,544.405,6112.59Zm7.02,0.92,10.357-6.37a0.183,0.183,0,0,1,.218.29l-8.548,7.93a1.766,1.766,0,0,0-.55,1.06l-0.29,2.15a0.268,0.268,0,0,1-.524.04l-1.119-3.93A1.038,1.038,0,0,1,551.425,6113.51Z" transform="translate(-544.031 -6103)"/>
</svg>
