<svg id="Группа_1" data-name="Группа 1" xmlns="http://www.w3.org/2000/svg" width="120" height="120" viewBox="0 0 120 120">
    <defs>
        <style>
            .cls-1,.cls-2{fill:#00bdca;fill-rule:evenodd}.cls-2{fill:#fafbfd}
        </style>
    </defs>
    <path id="Polygon_1" data-name="Polygon 1" class="cls-1" d="M1017.92 1165.33a12.822 12.822 0 0 0-2.37 11.88q1.815 6.54-4.09 9.88a12.844 12.844 0 0 0-6.73 10.08c-.55 4.48-3.08 7-7.562 7.56a12.825 12.825 0 0 0-10.073 6.73q-3.344 5.895-9.879 4.09a12.821 12.821 0 0 0-11.883 2.37q-5.347 4.17-10.695 0a12.819 12.819 0 0 0-11.882-2.37q-6.534 1.815-9.88-4.09a12.823 12.823 0 0 0-10.073-6.73q-6.729-.84-7.563-7.56a12.827 12.827 0 0 0-6.731-10.08q-5.9-3.345-4.091-9.88a12.814 12.814 0 0 0-2.364-11.88q-4.168-5.34 0-10.69a12.814 12.814 0 0 0 2.364-11.88q-1.8-6.54 4.091-9.88a12.811 12.811 0 0 0 6.731-10.08q.836-6.72 7.563-7.56a12.823 12.823 0 0 0 10.073-6.73q3.345-5.9 9.88-4.09a12.819 12.819 0 0 0 11.882-2.37q5.347-4.17 10.695 0a12.821 12.821 0 0 0 11.883 2.37q6.534-1.815 9.879 4.09a12.825 12.825 0 0 0 10.073 6.73c4.482.56 7.012 3.08 7.562 7.56a12.829 12.829 0 0 0 6.73 10.08q5.895 3.33 4.09 9.88a12.822 12.822 0 0 0 2.37 11.88q4.17 5.34 0 10.69z" transform="translate(-900 -1100)"/>
    <path id="Rounded_Rectangle_13" data-name="Rounded Rectangle 13" class="cls-2" d="M949.291 1139l33.434 19.68a1.3 1.3 0 0 1 1.286 1.32 1.3 1.3 0 0 1-1.286 1.31l-33.434 19.68a1.293 1.293 0 0 1-1.285-1.31v-39.37a1.3 1.3 0 0 1 1.285-1.31z" transform="translate(-900 -1100)"/>
</svg>
