<svg xmlns="http://www.w3.org/2000/svg" width="22.938" height="20" viewBox="0 0 22.938 20">
    <defs>
        <style>
            .cls-1{fill:#1d354e;fill-rule:evenodd}
        </style>
    </defs>
    <path class="cls-1" d="M.374 9.59l5.3 1.97 2.052 6.59a.625.625 0 0 0 .99.3l2.955-2.41a.893.893 0 0 1 1.075-.03l5.327 3.87a.629.629 0 0 0 .978-.38l3.9-18.75a.626.626 0 0 0-.837-.71L.365 8.42a.626.626 0 0 0 .009 1.17zm7.02.92l10.357-6.37a.183.183 0 0 1 .218.29l-8.548 7.93a1.766 1.766 0 0 0-.55 1.06l-.29 2.15a.268.268 0 0 1-.524.04l-1.119-3.93a1.038 1.038 0 0 1 .456-1.17z"/>
</svg>
